<?xml version='1.0' encoding='UTF-8'?>
<svg viewBox="-8 -2 32 32" xmlns="http://www.w3.org/2000/svg" xmlns:xlink="http://www.w3.org/1999/xlink">
  <g id="Layer_1" transform="translate(-8, -2)" style="enable-background:new 0 0 32 32">
    <g id="Temperature">
      <path d="M22, 16.7L22, 8C22, 4.7 19.3, 2 16, 2C12.7, 2 10, 4.7 10, 8L10, 16.7C8.8, 18.1 8, 20 8, 22C8, 26.4 11.6, 30 16, 30C20.4, 30 24, 26.4 24, 22C24, 20 23.2, 18.1 22, 16.7zM16, 28C12.7, 28 10, 25.3 10, 22C10, 20.2 10.8, 18.6 12, 17.5L12, 8C12, 5.8 13.8, 4 16, 4C18.2, 4 20, 5.8 20, 8L20, 17.5C21.2, 18.6 22, 20.2 22, 22C22, 25.3 19.3, 28 16, 28z" fill="#727272" class="Black" />
    </g>
  </g>
  <g id="Layer_1" transform="translate(-8.00000047683716, -2.00000047683716)" style="enable-background:new 0 0 32 32">
    <g id="Temperature">
      <path d="M18, 18.6L18, 8C18, 6.9 17.1, 6 16, 6C14.9, 6 14, 6.9 14, 8L14, 18.6C12.8, 19.3 12, 20.6 12, 22C12, 24.2 13.8, 26 16, 26C18.2, 26 20, 24.2 20, 22C20, 20.5 19.2, 19.2 18, 18.6z" fill="#039C23" class="Green" />
    </g>
  </g>
</svg>