<?xml version='1.0' encoding='UTF-8'?>
<svg viewBox="-4 -2 32 32" xmlns="http://www.w3.org/2000/svg" xmlns:xlink="http://www.w3.org/1999/xlink">
  <g id="Layer_1" transform="translate(-4, -2)" style="enable-background:new 0 0 32 32">
    <g id="Bus">
      <path d="M24, 2L8, 2C5.8, 2 4, 3.8 4, 6L4, 24C4, 25.1 4.9, 26 6, 26L6, 26L6, 29C6, 29.5 6.4, 30 7, 30L9, 30C9.6, 30 10, 29.5 10, 29L10, 26L22, 26L22, 29C22, 29.5 22.5, 30 23, 30L25, 30C25.5, 30 26, 29.5 26, 29L26, 26L26, 26C27.1, 26 28, 25.1 28, 24L28, 6C28, 3.8 26.2, 2 24, 2zM8, 6L24, 6L24, 14L8, 14L8, 6zM10, 22C8.9, 22 8, 21.1 8, 20C8, 18.9 8.9, 18 10, 18C11.1, 18 12, 18.9 12, 20C12, 21.1 11.1, 22 10, 22zM20, 20C20, 18.9 20.9, 18 22, 18C23.1, 18 24, 18.9 24, 20C24, 21.1 23.1, 22 22, 22C20.9, 22 20, 21.1 20, 20z" fill="#D11C1C" style="fill:#396B96" />
    </g>
  </g>
</svg>