<?xml version='1.0' encoding='UTF-8'?>
<svg viewBox="-6 -4 32 32" xmlns="http://www.w3.org/2000/svg" xmlns:xlink="http://www.w3.org/1999/xlink">
  <g transform="translate(-0.000700000000000145, -9.5367431640625E-07)">
    <g transform="matrix(0.857143580913544, 0, 0, 0.857143580913544, 0, 0)">
      <g transform="translate(0.000800038146972604, -9.15527344602651E-07)">
        <g transform="matrix(1.16666543483734, 0, 0, 1.16666543483734, 0, 0)">
          <g transform="translate(-0.000700000000000145, -9.5367431640625E-07)">
            <g transform="matrix(0.857143580913544, 0, 0, 0.857143580913544, 0, 0)">
              <g transform="translate(0.000500038146972859, -9.15527344602651E-07)">
                <g transform="matrix(0.875000715255737, 0, 0, 0.875000715255737, 0, 0)">
                  <g transform="translate(-0.000800219345092668, -4.57763672301326E-07)">
                    <g transform="matrix(1.33333337306976, 0, 0, 1.33333337306976, 0, 0)">
                      <g id="Layer_1" transform="translate(-6, -4.00000095367432)" style="enable-background:new 0 0 32 32">
                        <g id="Trash">
                          <path d="M8, 27C8, 27.5 8.5, 28 9, 28L23, 28C23.5, 28 24, 27.5 24, 27L24, 12L8, 12L8, 27z" fill="#0A5AA6" />
                        </g>
                      </g>
                    </g>
                  </g>
                </g>
              </g>
            </g>
          </g>
        </g>
      </g>
    </g>
  </g>
  <g transform="translate(-0.0007, 0)">
    <g transform="matrix(0.857143580913544, 0, 0, 0.857143580913544, 0, 0)">
      <g transform="translate(0.0008, 0)">
        <g transform="matrix(1.16666543483734, 0, 0, 1.16666543483734, 0, 0)">
          <g transform="translate(-0.0007, 0)">
            <g transform="matrix(0.857143580913544, 0, 0, 0.857143580913544, 0, 0)">
              <g transform="translate(0.0005, 0)">
                <g transform="matrix(0.875000715255737, 0, 0, 0.875000715255737, 0, 0)">
                  <g transform="translate(-0.0008, 0)">
                    <g transform="matrix(1.33333337306976, 0, 0, 1.33333337306976, 0, 0)">
                      <g id="Layer_1" transform="translate(-6, -4)" style="enable-background:new 0 0 32 32">
                        <g id="Trash">
                          <path d="M25, 6L18, 6L18, 5C18, 4.5 17.5, 4 17, 4L15, 4C14.5, 4 14, 4.5 14, 5L14, 6L7, 6C6.5, 6 6, 6.5 6, 7L6, 10L26, 10L26, 7C26, 6.5 25.5, 6 25, 6z" fill="#0A5AA6" />
                        </g>
                      </g>
                    </g>
                  </g>
                </g>
              </g>
            </g>
          </g>
        </g>
      </g>
    </g>
  </g>
</svg>