<?xml version='1.0' encoding='UTF-8'?>
<svg viewBox="-4 -4 32 32" xmlns="http://www.w3.org/2000/svg" xmlns:xlink="http://www.w3.org/1999/xlink">
  <g id="Layer_1" transform="translate(-4, -4)" style="enable-background:new 0 0 32 32">
    <g id="Car">
      <path d="M24, 4L8, 4L4, 14L4, 23L4, 24L4, 27C4, 27.5 4.4, 28 5, 28L7, 28C7.6, 28 8, 27.5 8, 27L8, 24L24, 24L24, 27C24, 27.5 24.4, 28 25, 28L27, 28C27.6, 28 28, 27.5 28, 27L28, 24L28, 23L28, 14L24, 4zM9.4, 6L22.7, 6L25.9, 14L6.2, 14L9.4, 6zM10, 20C8.9, 20 8, 19.1 8, 18C8, 16.9 8.9, 16 10, 16C11.1, 16 12, 16.9 12, 18C12, 19.1 11.1, 20 10, 20zM22, 20C20.9, 20 20, 19.1 20, 18C20, 16.9 20.9, 16 22, 16C23.1, 16 24, 16.9 24, 18C24, 19.1 23.1, 20 22, 20z" fill="#039C23" style="fill:#1EA83C" />
    </g>
  </g>
</svg>