<?xml version='1.0' encoding='UTF-8'?>
<svg viewBox="-2 -6 32 32" xmlns="http://www.w3.org/2000/svg" xmlns:xlink="http://www.w3.org/1999/xlink">
  <g id="Layer_1" transform="translate(-2, -6)" style="enable-background:new 0 0 32 32">
    <g id="Delivery">
      <path d="M29.7, 15.7L24.3, 10.3C24.1, 10.1 23.9, 10 23.6, 10L22, 10L22, 7C22, 6.5 21.6, 6 21, 6L3, 6C2.4, 6 2, 6.5 2, 7L2, 22L4, 22C4, 24.2 5.8, 26 8, 26C10.2, 26 12, 24.2 12, 22L20, 22C20, 24.2 21.8, 26 24, 26C26.2, 26 28, 24.2 28, 22L30, 22L30, 16.4C30, 16.1 29.9, 15.9 29.7, 15.7zM8, 24C6.9, 24 6, 23.1 6, 22C6, 20.9 6.9, 20 8, 20C9.1, 20 10, 20.9 10, 22C10, 23.1 9.1, 24 8, 24zM24, 24C22.9, 24 22, 23.1 22, 22C22, 20.9 22.9, 20 24, 20C25.1, 20 26, 20.9 26, 22C26, 23.1 25.1, 24 24, 24zM22, 16L22, 12L23.2, 12L27.2, 16L22, 16z" fill="#727272" class="Black" />
    </g>
  </g>
</svg>