<?xml version='1.0' encoding='UTF-8'?>
<svg viewBox="-6 -2 32 32" xmlns="http://www.w3.org/2000/svg" xmlns:xlink="http://www.w3.org/1999/xlink">
  <g id="Layer_1" transform="translate(-6, -2)" style="enable-background:new 0 0 32 32">
    <g id="MapPointer">
      <path d="M16, 2C10.5, 2 6, 6.5 6, 12C6, 17.5 16, 30 16, 30C16, 30 26, 17.5 26, 12C26, 6.5 21.5, 2 16, 2zM16, 16C13.8, 16 12, 14.2 12, 12C12, 9.8 13.8, 8 16, 8C18.2, 8 20, 9.8 20, 12C20, 14.2 18.2, 16 16, 16z" fill="#D11C1C" style="fill:#FAB43C" />
    </g>
  </g>
  <g id="Layer_1" transform="translate(2.00000143051147, 2)" style="enable-background:new 0 0 16 16">
    <g transform="matrix(-1, 0, 0, 1, 16, 0)">
      <g id="Refresh_4_">
        <path d="M16, 0L13.7, 2.3C12.2, 0.9 10.2, 0 8, 0C3.6, 0 0, 3.6 0, 8C0, 8.7 0.1, 9.4 0.3, 10L0, 10L0, 16L2.3, 13.7C3.8, 15.1 5.8, 16 8, 16C12.4, 16 16, 12.4 16, 8C16, 7.3 15.9, 6.6 15.7, 6L16, 6L16, 0z" fill="#039C23" style="fill:#2E7D32" />
      </g>
    </g>
  </g>
  <g id="Layer_1" transform="translate(2.00000143051147, 2)" style="enable-background:new 0 0 16 16">
    <g transform="matrix(-1, 0, 0, 1, 16, 0)">
      <g id="Refresh_4_">
        <path d="M13.7, 6L10, 6L12.2, 3.8C11.2, 2.7 9.7, 2 8, 2C4.7, 2 2, 4.7 2, 8L0, 8C0, 8.7 0.1, 9.4 0.3, 10L2.4, 10L6, 10L3.8, 12.2C4.8, 13.3 6.3, 14 8, 14C11.3, 14 14, 11.3 14, 8L16, 8C16, 7.3 15.9, 6.6 15.7, 6L13.7, 6z" fill="#FFFFFF" style="fill:#FFFFFF" />
      </g>
    </g>
  </g>
</svg>